<svg width="25" height="25" viewBox="0 0 25 25" fill="none" xmlns="http://www.w3.org/2000/svg">
<path d="M0 4C0 1.79086 1.79086 0 4 0H20.1716C22.3808 0 24.1716 1.79086 24.1716 4V20.1716C24.1716 22.3808 22.3808 24.1716 20.1716 24.1716H4C1.79086 24.1716 0 22.3808 0 20.1716V4Z" fill="#794747"/>
<path d="M18.4228 5.10208H17.6472V3.80835H16.3535V5.10208H7.81854V3.80835H6.52481V5.10208H5.74919C4.67926 5.10208 3.80859 5.97274 3.80859 7.04267V18.4257C3.80859 19.4925 4.67926 20.3632 5.74919 20.3632H18.4228C19.4928 20.3632 20.3634 19.4925 20.3634 18.4226V7.04267C20.3634 5.97274 19.4928 5.10208 18.4228 5.10208ZM19.0697 18.4226C19.0697 18.7782 18.7785 19.0695 18.4228 19.0695H5.74919C5.39357 19.0695 5.10232 18.7782 5.10232 18.4226V9.88765H19.0697V18.4226ZM19.0697 8.59392H5.10232V7.04267C5.10232 6.68705 5.39357 6.39581 5.74919 6.39581H6.52481V7.68954H7.81854V6.39581H16.3535V7.68954H17.6472V6.39581H18.4228C18.7785 6.39581 19.0697 6.68705 19.0697 7.04267V8.59392Z" fill="white"/>
<path d="M7.56082 11.2458H6.26709V12.5396H7.56082V11.2458Z" fill="white"/>
<path d="M10.1453 11.2458H8.85156V12.5396H10.1453V11.2458Z" fill="white"/>
<path d="M12.7327 11.2458H11.439V12.5396H12.7327V11.2458Z" fill="white"/>
<path d="M15.3206 11.2458H14.0269V12.5396H15.3206V11.2458Z" fill="white"/>
<path d="M17.908 11.2458H16.6143V12.5396H17.908V11.2458Z" fill="white"/>
<path d="M7.56082 13.8333H6.26709V15.127H7.56082V13.8333Z" fill="white"/>
<path d="M10.1453 13.8333H8.85156V15.127H10.1453V13.8333Z" fill="white"/>
<path d="M12.7327 13.8333H11.439V15.127H12.7327V13.8333Z" fill="white"/>
<path d="M15.3206 13.8333H14.0269V15.127H15.3206V13.8333Z" fill="white"/>
<path d="M7.56082 16.4177H6.26709V17.7115H7.56082V16.4177Z" fill="white"/>
<path d="M10.1453 16.4177H8.85156V17.7115H10.1453V16.4177Z" fill="white"/>
<path d="M12.7327 16.4177H11.439V17.7115H12.7327V16.4177Z" fill="white"/>
<path d="M15.3206 16.4177H14.0269V17.7115H15.3206V16.4177Z" fill="white"/>
<path d="M17.908 13.8333H16.6143V15.127H17.908V13.8333Z" fill="white"/>
</svg>
