<svg width="30" height="30" viewBox="0 0 30 30" fill="none" xmlns="http://www.w3.org/2000/svg">
<path fill-rule="evenodd" clip-rule="evenodd" d="M0 14.7727C0 6.61398 6.61398 0 14.7727 0C22.9315 0 29.5455 6.61398 29.5455 14.7727C29.5455 22.9315 22.9315 29.5455 14.7727 29.5455C6.61398 29.5455 0 22.9315 0 14.7727Z" fill="#794747"/>
<path fill-rule="evenodd" clip-rule="evenodd" d="M14.8795 7C12.7398 7 12.4712 7.00936 11.6308 7.0476C10.792 7.08601 10.2195 7.2188 9.71854 7.41364C9.20034 7.61488 8.76076 7.88407 8.32283 8.32217C7.88457 8.76011 7.61537 9.19968 7.41348 9.71772C7.21815 10.2188 7.08519 10.7915 7.04744 11.63C7.00985 12.4704 7 12.7391 7 14.8789C7 17.0186 7.00952 17.2864 7.0476 18.1268C7.08618 18.9655 7.21897 19.5381 7.41364 20.039C7.61504 20.5572 7.88424 20.9968 8.32234 21.4347C8.76011 21.873 9.19968 22.1429 9.71755 22.3441C10.2188 22.5389 10.7915 22.6717 11.6301 22.7101C12.4706 22.7484 12.7389 22.7577 14.8785 22.7577C17.0185 22.7577 17.2862 22.7484 18.1266 22.7101C18.9654 22.6717 19.5386 22.5389 20.0399 22.3441C20.5579 22.1429 20.9968 21.873 21.4346 21.4347C21.8728 20.9968 22.142 20.5572 22.3439 20.0392C22.5376 19.5381 22.6706 18.9654 22.71 18.1269C22.7477 17.2865 22.7576 17.0186 22.7576 14.8789C22.7576 12.7391 22.7477 12.4706 22.71 11.6301C22.6706 10.7914 22.5376 10.2188 22.3439 9.71788C22.142 9.19968 21.8728 8.76011 21.4346 8.32217C20.9963 7.88391 20.5581 7.61472 20.0394 7.41364C19.5371 7.2188 18.9642 7.08601 18.1255 7.0476C17.285 7.00936 17.0175 7 14.8771 7L14.8795 7Z" fill="#DADADA"/>
<path fill-rule="evenodd" clip-rule="evenodd" d="M14.1726 8.41985C14.3824 8.41952 14.6165 8.41985 14.8794 8.41985C16.9831 8.41985 17.2324 8.4274 18.0632 8.46515C18.8314 8.50028 19.2483 8.62864 19.526 8.73648C19.8937 8.87928 20.1558 9.04999 20.4314 9.32575C20.7072 9.60151 20.8779 9.86414 21.021 10.2318C21.1289 10.5092 21.2574 10.9261 21.2923 11.6943C21.3301 12.5249 21.3383 12.7744 21.3383 14.8771C21.3383 16.9797 21.3301 17.2292 21.2923 18.0598C21.2572 18.828 21.1289 19.2449 21.021 19.5223C20.8782 19.89 20.7072 20.1518 20.4314 20.4274C20.1557 20.7032 19.8939 20.8739 19.526 21.0167C19.2486 21.125 18.8314 21.253 18.0632 21.2882C17.2326 21.3259 16.9831 21.3341 14.8794 21.3341C12.7756 21.3341 12.5263 21.3259 11.6957 21.2882C10.9275 21.2527 10.5106 21.1244 10.2327 21.0165C9.86503 20.8737 9.6024 20.703 9.32664 20.4272C9.05088 20.1515 8.88018 19.8895 8.73704 19.5217C8.6292 19.2443 8.50068 18.8273 8.46571 18.0592C8.42796 17.2286 8.42041 16.9791 8.42041 14.8751C8.42041 12.7711 8.42796 12.5229 8.46571 11.6924C8.50084 10.9242 8.6292 10.5073 8.73704 10.2295C8.87985 9.86184 9.05088 9.59922 9.32664 9.32345C9.6024 9.04769 9.86503 8.87699 10.2327 8.73385C10.5104 8.62552 10.9275 8.49749 11.6957 8.4622C12.4225 8.42937 12.7042 8.41952 14.1726 8.41788V8.41985Z" fill="#794747"/>
<path fill-rule="evenodd" clip-rule="evenodd" d="M19.0851 9.72808C18.5631 9.72808 18.1396 10.1511 18.1396 10.6732C18.1396 11.1952 18.5631 11.6187 19.0851 11.6187C19.6071 11.6187 20.0306 11.1952 20.0306 10.6732C20.0306 10.1512 19.6071 9.72775 19.0851 9.72775V9.72808Z" fill="#DADADA"/>
<path fill-rule="evenodd" clip-rule="evenodd" d="M14.8791 10.8327C12.6447 10.8327 10.833 12.6444 10.833 14.8789C10.833 17.1133 12.6447 18.9242 14.8791 18.9242C17.1136 18.9242 18.9246 17.1133 18.9246 14.8789C18.9246 12.6444 17.1135 10.8327 14.879 10.8327L14.8791 10.8327Z" fill="#DADADA"/>
<path fill-rule="evenodd" clip-rule="evenodd" d="M14.8792 12.2526C16.3296 12.2526 17.5055 13.4284 17.5055 14.8789C17.5055 16.3293 16.3296 17.5052 14.8792 17.5052C13.4287 17.5052 12.2529 16.3293 12.2529 14.8789C12.2529 13.4284 13.4287 12.2526 14.8792 12.2526V12.2526Z" fill="#794747"/>
</svg>
