<?xml version="1.0" encoding="UTF-8"?>
<svg xmlns="http://www.w3.org/2000/svg" xmlns:xlink="http://www.w3.org/1999/xlink" width="16px" height="16px" viewBox="0 0 16 16" version="1.1">
<g id="surface1">
<path style=" stroke:none;fill-rule:evenodd;fill:rgb(11.372549%,11.372549%,11.372549%);fill-opacity:1;" d="M 8 0 C 12.414062 0 16 3.585938 16 8 C 16 12.414062 12.414062 16 8 16 C 3.585938 16 0 12.414062 0 8 C 0 3.585938 3.585938 0 8 0 Z M 8 14.398438 C 11.535156 14.398438 14.398438 11.535156 14.398438 8 C 14.398438 4.464844 11.535156 1.601562 8 1.601562 C 4.464844 1.601562 1.601562 4.464844 1.601562 8 C 1.601562 11.535156 4.464844 14.398438 8 14.398438 Z M 8 12 C 5.789062 12 4 10.210938 4 8 C 4 5.789062 5.789062 4 8 4 C 10.210938 4 12 5.789062 12 8 C 12 10.210938 10.210938 12 8 12 Z M 8 12 "/>
</g>
</svg>
