<?xml version="1.0" encoding="utf-8"?><svg viewBox="0 0 30 30" xmlns="http://www.w3.org/2000/svg" xmlns:xlink="http://www.w3.org/1999/xlink"><style>:root>svg{display:none}:root>svg:target{display:block}</style><svg fill="none" viewBox="0 0 25 25" id="calendar" xmlns="http://www.w3.org/2000/svg"><path d="M0 4a4 4 0 014-4h16.172a4 4 0 014 4v16.172a4 4 0 01-4 4H4a4 4 0 01-4-4V4z" fill="#794747"/><path d="M18.423 5.102h-.776V3.808h-1.293v1.294H7.819V3.808H6.525v1.294h-.776c-1.07 0-1.94.87-1.94 1.94v11.384c0 1.067.87 1.937 1.94 1.937h12.674c1.07 0 1.94-.87 1.94-1.94V7.043c0-1.07-.87-1.94-1.94-1.94zm.647 13.32a.649.649 0 01-.647.648H5.749a.649.649 0 01-.647-.647V9.888H19.07v8.535zm0-9.828H5.102V7.043c0-.356.292-.647.647-.647h.776V7.69h1.294V6.396h8.535V7.69h1.293V6.396h.776c.356 0 .647.291.647.647v1.55z" fill="#fff"/><path d="M7.56 11.246H6.268v1.294h1.294v-1.294zM10.145 11.246H8.852v1.294h1.293v-1.294zM12.733 11.246h-1.294v1.294h1.294v-1.294zM15.32 11.246h-1.293v1.294h1.294v-1.294zM17.908 11.246h-1.294v1.294h1.294v-1.294zM7.56 13.833H6.268v1.294h1.294v-1.294zM10.145 13.833H8.852v1.294h1.293v-1.294zM12.733 13.833h-1.294v1.294h1.294v-1.294zM15.32 13.833h-1.293v1.294h1.294v-1.294zM7.56 16.418H6.268v1.294h1.294v-1.294zM10.145 16.418H8.852v1.294h1.293v-1.294zM12.733 16.418h-1.294v1.294h1.294v-1.294zM15.32 16.418h-1.293v1.294h1.294v-1.294zM17.908 13.833h-1.294v1.294h1.294v-1.294z" fill="#fff"/></svg><svg viewBox="0 0 15 15" id="close" xmlns="http://www.w3.org/2000/svg"><path d="M8.832 7.496l6.059-6.062a.337.337 0 000-.473l-.864-.863a.337.337 0 00-.472 0L7.496 6.156 1.434.098a.345.345 0 00-.473 0L.098.96a.337.337 0 000 .473l6.058 6.062-6.058 6.059a.337.337 0 000 .472l.863.864a.337.337 0 00.473 0l6.062-6.059 6.059 6.059a.335.335 0 00.472 0l.864-.864a.337.337 0 000-.472zm0 0"/></svg><svg fill="none" viewBox="0 0 30 30" id="fb" xmlns="http://www.w3.org/2000/svg"><path fill-rule="evenodd" clip-rule="evenodd" d="M0 14.773C0 6.614 6.614 0 14.773 0c8.159 0 14.773 6.614 14.773 14.773 0 8.159-6.614 14.773-14.773 14.773C6.614 29.546 0 22.931 0 14.773z" fill="#794747"/><path fill-rule="evenodd" clip-rule="evenodd" d="M15.987 23.072v-8.037h2.218l.294-2.77h-2.512l.004-1.386c0-.722.068-1.109 1.106-1.109h1.387V7h-2.22c-2.664 0-3.603 1.344-3.603 3.603v1.663H11v2.77h1.661v8.036h3.326z" fill="#DADADA"/></svg><svg fill="none" viewBox="0 0 30 30" id="insta" xmlns="http://www.w3.org/2000/svg"><path fill-rule="evenodd" clip-rule="evenodd" d="M0 14.773C0 6.614 6.614 0 14.773 0c8.159 0 14.773 6.614 14.773 14.773 0 8.159-6.614 14.773-14.773 14.773C6.614 29.546 0 22.931 0 14.773z" fill="#794747"/><path fill-rule="evenodd" clip-rule="evenodd" d="M14.88 7c-2.14 0-2.409.01-3.25.048-.838.038-1.41.17-1.911.366-.519.2-.958.47-1.396.908a3.868 3.868 0 00-.91 1.396c-.195.5-.328 1.073-.366 1.912C7.01 12.47 7 12.74 7 14.879c0 2.14.01 2.407.048 3.248.038.838.171 1.411.366 1.912.201.518.47.958.908 1.396.438.438.878.708 1.396.91.5.194 1.073.327 1.912.365.84.038 1.109.048 3.248.048 2.14 0 2.408-.01 3.249-.048.838-.038 1.412-.171 1.913-.366a3.854 3.854 0 001.395-.91c.438-.437.707-.877.909-1.395.194-.5.327-1.074.366-1.912.038-.84.048-1.108.048-3.248s-.01-2.408-.048-3.249c-.04-.839-.172-1.411-.366-1.912a3.868 3.868 0 00-.91-1.396 3.85 3.85 0 00-1.395-.908c-.502-.195-1.075-.328-1.914-.366-.84-.039-1.108-.048-3.248-.048h.002z" fill="#DADADA"/><path fill-rule="evenodd" clip-rule="evenodd" d="M14.173 8.42h.706c2.104 0 2.353.007 3.184.045.768.035 1.185.164 1.463.271.368.143.63.314.905.59.276.276.447.538.59.906.108.277.236.694.271 1.462.038.83.046 1.08.046 3.183 0 2.103-.008 2.352-.046 3.183-.035.768-.163 1.185-.271 1.462-.143.368-.314.63-.59.905a2.435 2.435 0 01-.905.59c-.277.108-.695.236-1.463.271-.83.038-1.08.046-3.184.046-2.103 0-2.353-.008-3.183-.046-.768-.035-1.185-.164-1.463-.271a2.44 2.44 0 01-.906-.59 2.442 2.442 0 01-.59-.905c-.108-.278-.236-.695-.271-1.463-.038-.83-.046-1.08-.046-3.184s.008-2.352.046-3.183c.035-.768.163-1.185.271-1.463.143-.367.314-.63.59-.906.275-.275.538-.446.906-.59.277-.107.694-.236 1.463-.27.726-.034 1.008-.043 2.477-.045v.002z" fill="#794747"/><path fill-rule="evenodd" clip-rule="evenodd" d="M19.085 9.728a.945.945 0 100 1.891.945.945 0 000-1.891zM14.88 10.833a4.046 4.046 0 100 8.092 4.046 4.046 0 00-.001-8.092z" fill="#DADADA"/><path fill-rule="evenodd" clip-rule="evenodd" d="M14.88 12.253a2.626 2.626 0 110 5.252 2.626 2.626 0 010-5.252z" fill="#794747"/></svg></svg>